<svg version="1.2" xmlns="http://www.w3.org/2000/svg" viewBox="0 0 89 89" width="89" height="89">
	<title>&lt;Path&gt;</title>
	<style>
		.s0 { fill: #000000 } 
	</style>
	<path id="&lt;Path&gt;" class="s0" d="m62.4 70c15-10.5 26.8-24.7 25.5-41.9-0.3-4-1.5-8.1-4.1-11.1-3.5-4-8.9-5.7-14.1-5.6-8.4 0.2-16.3 4.5-22.3 10.3-6.1 5.9-10.5 13.1-15 20.2 1-10.6-0.8-21.4-5.1-31.1-2-4.5-5.2-9.3-10.1-10.1-6.3-1.2-11.8 4.9-14.1 10.9-3.2 8.3-3.4 17.8-0.4 26.2 6.3 17.5 16.7 32.3 21.7 50.7 11.1-3.5 25.6-9.8 38-18.5z"/>
</svg>